# xmcd
#
# Track frame offsets: 
#        150
#        18112
#        45904
#        70414
#        89122
#        121537
#        138300
#        165456
#        181619
#        198992
#        218417
#        239238
#        262010
#        290024
#        310910
#
# Disc length: 4565 seconds
#
# Revision: 0
# Processed by: cddbd v1.5.2PL0 Copyright (c) Steve Scherf et al.
# Submitted via: ExactAudioCopy v1.0b3
#
DISCID=d011d30f
DTITLE=Jan Spaleny Trio - Panenko skakava
DYEAR=1900
DGENRE=
TTITLE0=Hotel Stisko blues
TTITLE1=Suzanna
TTITLE2=Dnes opoustim pristav
TTITLE3=Jsi trochu povadla
TTITLE4=Zavolej jen moje jmeno
TTITLE5=Cinovy vojacek
TTITLE6=Znam te malo
TTITLE7=Sto tisic modrych slunci
TTITLE8=Loudani
TTITLE9=Bojler blues
TTITLE10=V ulicich je dest
TTITLE11=Skandal
TTITLE12=Asi v tom bude nejakej hacek
TTITLE13=Mezi brehy
TTITLE14=Verim v nas
EXTD=
EXTT0=
EXTT1=
EXTT2=
EXTT3=
EXTT4=
EXTT5=
EXTT6=
EXTT7=
EXTT8=
EXTT9=
EXTT10=
EXTT11=
EXTT12=
EXTT13=
EXTT14=
PLAYORDER=
